# xmcd CD database file
#
# Track frame offsets:
#	182
#	16072
#	30950
#	49285
#	63750
#	86352
#	101402
#	112662
#	125800
#	138007
#	151372
#	175425
#
# Disc length: 2526 seconds
#
# Revision: 0
# Processed by: cddbd v1.4PL0 Copyright (c) Steve Scherf et al.
# Submitted via: CDex 1.50
#
DISCID=8809dc0c
DTITLE=Gilbert O'Sullivan - Himself
DYEAR=1971
DGENRE=Jazz
TTITLE0=Intro: January Git
TTITLE1=Bye-Bye
TTITLE2=Permissive Twit
TTITLE3=Matrimony
TTITLE4=Independant Air
TTITLE5=Nothing Rhymed
TTITLE6=Too Much Attention
TTITLE7=Susan van Huesan
TTITLE8=If I Don't Get You (Back Again)
TTITLE9=Thunder and Lightning
TTITLE10=Houdini Said
TTITLE11=Doing the Best I Can:Outro
EXTD=YEAR: 1971
EXTT0=
EXTT1=
EXTT2=
EXTT3=
EXTT4=
EXTT5=
EXTT6=
EXTT7=
EXTT8=
EXTT9=
EXTT10=
EXTT11=
PLAYORDER=
